<svg xmlns="http://www.w3.org/2000/svg" viewBox="0 0 512 512" fill="none">
  <rect width="512" height="512" rx="96" fill="#09090b"/>
  <path d="M256 96c-88.4 0-160 71.6-160 160s71.6 160 160 160 160-71.6 160-160S344.4 96 256 96zm0 280c-66.3 0-120-53.7-120-120s53.7-120 120-120 120 53.7 120 120-53.7 120-120 120z" fill="#a855f7"/>
  <path d="M256 176c-44.2 0-80 35.8-80 80s35.8 80 80 80 80-35.8 80-80-35.8-80-80-80zm0 120c-22.1 0-40-17.9-40-40s17.9-40 40-40 40 17.9 40 40-17.9 40-40 40z" fill="#a855f7"/>
  <circle cx="256" cy="256" r="24" fill="#a855f7"/>
  <path d="M336 176l32-32M176 176l-32-32M336 336l32 32M176 336l-32 32" stroke="#a855f7" stroke-width="16" stroke-linecap="round"/>
</svg>
